<svg xmlns="http://www.w3.org/2000/svg" width="105" height="16" fill="none"><path fill="#111" d="M14.645 4.725h-2.391c.064-.375.296-.585.767-.823l.44-.224c.786-.403 1.206-.86 1.206-1.605 0-.467-.182-.837-.543-1.103-.361-.266-.787-.398-1.285-.398a1.983 1.983 0 0 0-1.09.311 1.823 1.823 0 0 0-.722.787l.692.694c.269-.543.658-.809 1.17-.809.434 0 .7.224.7.535 0 .26-.129.476-.627.728l-.283.137c-.613.311-1.039.667-1.285 1.07s-.367.91-.367 1.523v.168h3.618v-.991Zm-.319 2.132h-3.96l-1.98 3.428h3.96l1.98 3.43 1.98-3.43-1.98-3.428Z"/><path fill="#111" d="M8.728 12.573A4.58 4.58 0 0 1 4.156 8a4.58 4.58 0 0 1 4.572-4.573L10.294.154A8 8 0 0 0 .729 8a8 8 0 0 0 12.71 6.466l-1.731-3.002a4.559 4.559 0 0 1-2.98 1.109ZM31.409 1.817a1 1 0 0 1 1.793 0l1.222 2.475a1 1 0 0 0 .753.548l2.732.397a1 1 0 0 1 .554 1.705L36.486 8.87a1 1 0 0 0-.287.885l.466 2.721a1 1 0 0 1-1.45 1.054l-2.444-1.284a1 1 0 0 0-.93 0l-2.444 1.284a1 1 0 0 1-1.451-1.054l.466-2.72a1 1 0 0 0-.287-.886l-1.977-1.927a1 1 0 0 1 .554-1.705l2.732-.397a1 1 0 0 0 .753-.548l1.222-2.475Zm16 0a1 1 0 0 1 1.793 0l1.222 2.475a1 1 0 0 0 .753.548l2.732.397a1 1 0 0 1 .554 1.705L52.486 8.87a1 1 0 0 0-.287.885l.466 2.721a1 1 0 0 1-1.45 1.054l-2.444-1.284a1 1 0 0 0-.93 0l-2.444 1.284a1 1 0 0 1-1.451-1.054l.466-2.72a1 1 0 0 0-.287-.886l-1.977-1.927a1 1 0 0 1 .554-1.705l2.732-.397a1 1 0 0 0 .753-.548l1.222-2.475Zm16 0a1 1 0 0 1 1.793 0l1.222 2.475a1 1 0 0 0 .753.548l2.732.397a1 1 0 0 1 .554 1.705L68.486 8.87a1 1 0 0 0-.288.885l.467 2.721a1 1 0 0 1-1.45 1.054l-2.444-1.284a1 1 0 0 0-.93 0l-2.444 1.284a1 1 0 0 1-1.451-1.054l.466-2.72a1 1 0 0 0-.287-.886l-1.977-1.927a1 1 0 0 1 .554-1.705l2.732-.397a1 1 0 0 0 .753-.548l1.222-2.475Zm16 0a1 1 0 0 1 1.793 0l1.222 2.475a1 1 0 0 0 .753.548l2.732.397a1 1 0 0 1 .554 1.705L84.486 8.87a1 1 0 0 0-.288.885l.467 2.721a1 1 0 0 1-1.45 1.054l-2.444-1.284a1 1 0 0 0-.93 0l-2.444 1.284a1 1 0 0 1-1.451-1.054l.466-2.72a1 1 0 0 0-.287-.886l-1.977-1.927a1 1 0 0 1 .554-1.705l2.732-.397a1 1 0 0 0 .753-.548l1.222-2.475Z"/><mask id="a" width="11" height="16" x="88" y="0" maskUnits="userSpaceOnUse" style="mask-type:alpha"><path fill="#D9D9D9" d="M88.521 0h10.25v16h-10.25z"/></mask><g mask="url(#a)"><path fill="#111" d="M95.409 1.817a1 1 0 0 1 1.793 0l1.222 2.475a1 1 0 0 0 .753.548l2.732.397a1 1 0 0 1 .554 1.705l-1.977 1.927a.998.998 0 0 0-.287.885l.466 2.721a1 1 0 0 1-1.45 1.054l-2.444-1.284a1 1 0 0 0-.93 0l-2.444 1.284a1 1 0 0 1-1.451-1.054l.466-2.72a1 1 0 0 0-.287-.886l-1.977-1.927a1 1 0 0 1 .554-1.705l2.732-.397a1 1 0 0 0 .753-.548l1.222-2.475Z"/></g><path stroke="#111" d="m96.754 2.038 1.221 2.476a1.5 1.5 0 0 0 1.13.82l2.732.397a.5.5 0 0 1 .277.853l-1.977 1.927a1.5 1.5 0 0 0-.431 1.328l.466 2.72a.5.5 0 0 1-.725.528l-2.444-1.285a1.5 1.5 0 0 0-1.396 0l-2.443 1.285a.5.5 0 0 1-.725-.527l.466-2.721a1.5 1.5 0 0 0-.431-1.328l-1.977-1.927a.5.5 0 0 1 .277-.853l2.732-.397a1.5 1.5 0 0 0 1.13-.82l1.221-2.476a.5.5 0 0 1 .897 0Z"/></svg>